<mxfile host="app.diagrams.net" agent="Mozilla/5.0 (Windows NT 10.0; Win64; x64) AppleWebKit/537.36 (KHTML, like Gecko) Chrome/137.0.0.0 Safari/537.36" version="27.2.0">
  <diagram id="x98zDOEMtSq3QlI_Kg_6" name="항공편 유스케이스">
    <mxGraphModel dx="1634" dy="1226" grid="1" gridSize="10" guides="1" tooltips="1" connect="1" arrows="1" fold="1" page="1" pageScale="1" pageWidth="827" pageHeight="1169" math="0" shadow="0">
      <root>
        <mxCell id="0" />
        <mxCell id="1" parent="0" />
        <mxCell id="xVFssI4elNhM6xEzGph4-1" value="항공편 예매 프로그램" style="shape=umlFrame;whiteSpace=wrap;html=1;pointerEvents=0;width=140;height=50;" vertex="1" parent="1">
          <mxGeometry x="272" y="404.4000244140625" width="1120" height="880" as="geometry" />
        </mxCell>
        <mxCell id="xVFssI4elNhM6xEzGph4-2" value="회원 고객" style="shape=umlActor;verticalLabelPosition=bottom;verticalAlign=top;html=1;" vertex="1" parent="1">
          <mxGeometry x="192" y="859.4000244140625" width="30" height="60" as="geometry" />
        </mxCell>
        <mxCell id="xVFssI4elNhM6xEzGph4-3" value="비회원 고객" style="shape=umlActor;verticalLabelPosition=bottom;verticalAlign=top;html=1;" vertex="1" parent="1">
          <mxGeometry x="192" y="474.4000244140625" width="30" height="60" as="geometry" />
        </mxCell>
        <mxCell id="xVFssI4elNhM6xEzGph4-4" value="항공사 직원" style="shape=umlActor;verticalLabelPosition=bottom;verticalAlign=top;html=1;" vertex="1" parent="1">
          <mxGeometry x="624" y="1324.4000244140625" width="30" height="60" as="geometry" />
        </mxCell>
        <mxCell id="xVFssI4elNhM6xEzGph4-5" value="&lt;font style=&quot;font-size: 15px;&quot;&gt;항공편 조회&lt;/font&gt;" style="ellipse;whiteSpace=wrap;html=1;" vertex="1" parent="1">
          <mxGeometry x="396" y="799.4000244140625" width="110" height="60" as="geometry" />
        </mxCell>
        <mxCell id="xVFssI4elNhM6xEzGph4-6" value="Use" style="html=1;verticalAlign=bottom;endArrow=block;curved=0;rounded=0;entryX=0;entryY=0.667;entryDx=0;entryDy=0;entryPerimeter=0;" edge="1" parent="1" source="xVFssI4elNhM6xEzGph4-2" target="xVFssI4elNhM6xEzGph4-5">
          <mxGeometry x="0.0091" y="-7" width="80" relative="1" as="geometry">
            <mxPoint x="362" y="584.4000244140625" as="sourcePoint" />
            <mxPoint x="442" y="584.4000244140625" as="targetPoint" />
            <mxPoint as="offset" />
          </mxGeometry>
        </mxCell>
        <mxCell id="xVFssI4elNhM6xEzGph4-7" value="Use" style="html=1;verticalAlign=bottom;endArrow=block;curved=0;rounded=0;entryX=0.087;entryY=0.173;entryDx=0;entryDy=0;entryPerimeter=0;exitX=0.5;exitY=0.5;exitDx=0;exitDy=0;exitPerimeter=0;" edge="1" parent="1" source="xVFssI4elNhM6xEzGph4-3" target="xVFssI4elNhM6xEzGph4-5">
          <mxGeometry x="-0.0574" y="1" width="80" relative="1" as="geometry">
            <mxPoint x="342" y="1124.4000244140625" as="sourcePoint" />
            <mxPoint x="422" y="1124.4000244140625" as="targetPoint" />
            <mxPoint as="offset" />
          </mxGeometry>
        </mxCell>
        <mxCell id="xVFssI4elNhM6xEzGph4-8" value="&lt;font style=&quot;font-size: 15px;&quot;&gt;항공편 관리&lt;/font&gt;" style="ellipse;whiteSpace=wrap;html=1;" vertex="1" parent="1">
          <mxGeometry x="992" y="1024.4000244140625" width="110" height="60" as="geometry" />
        </mxCell>
        <mxCell id="xVFssI4elNhM6xEzGph4-9" value="&lt;font style=&quot;font-size: 15px;&quot;&gt;로그인&lt;/font&gt;" style="ellipse;whiteSpace=wrap;html=1;" vertex="1" parent="1">
          <mxGeometry x="858" y="884.4000244140625" width="110" height="60" as="geometry" />
        </mxCell>
        <mxCell id="xVFssI4elNhM6xEzGph4-10" value="" style="edgeStyle=orthogonalEdgeStyle;rounded=0;orthogonalLoop=1;jettySize=auto;html=1;fontSize=12;startSize=8;endSize=8;endArrow=block;endFill=0;" edge="1" parent="1" source="xVFssI4elNhM6xEzGph4-11" target="xVFssI4elNhM6xEzGph4-8">
          <mxGeometry relative="1" as="geometry" />
        </mxCell>
        <mxCell id="xVFssI4elNhM6xEzGph4-11" value="&lt;span style=&quot;font-size: 15px;&quot;&gt;수정&lt;/span&gt;" style="ellipse;whiteSpace=wrap;html=1;" vertex="1" parent="1">
          <mxGeometry x="1182" y="1034.4000244140625" width="43" height="40" as="geometry" />
        </mxCell>
        <mxCell id="xVFssI4elNhM6xEzGph4-12" value="&lt;font style=&quot;font-size: 15px;&quot;&gt;예매&lt;/font&gt;" style="ellipse;whiteSpace=wrap;html=1;" vertex="1" parent="1">
          <mxGeometry x="544" y="594.4000244140625" width="110" height="60" as="geometry" />
        </mxCell>
        <mxCell id="xVFssI4elNhM6xEzGph4-13" value="예메 시스템&lt;br&gt;&lt;div&gt;관리자&lt;/div&gt;" style="shape=umlActor;verticalLabelPosition=bottom;verticalAlign=top;html=1;" vertex="1" parent="1">
          <mxGeometry x="909" y="1324.4000244140625" width="30" height="60" as="geometry" />
        </mxCell>
        <mxCell id="xVFssI4elNhM6xEzGph4-14" value="" style="edgeStyle=orthogonalEdgeStyle;rounded=0;orthogonalLoop=1;jettySize=auto;html=1;fontSize=12;startSize=8;endSize=8;endArrow=block;endFill=0;" edge="1" parent="1" source="xVFssI4elNhM6xEzGph4-15" target="xVFssI4elNhM6xEzGph4-8">
          <mxGeometry relative="1" as="geometry" />
        </mxCell>
        <mxCell id="xVFssI4elNhM6xEzGph4-15" value="&lt;span style=&quot;font-size: 15px;&quot;&gt;조회&lt;/span&gt;" style="ellipse;whiteSpace=wrap;html=1;" vertex="1" parent="1">
          <mxGeometry x="1182" y="994.4000244140625" width="43" height="40" as="geometry" />
        </mxCell>
        <mxCell id="xVFssI4elNhM6xEzGph4-16" value="" style="edgeStyle=orthogonalEdgeStyle;rounded=0;orthogonalLoop=1;jettySize=auto;html=1;fontSize=12;startSize=8;endSize=8;endArrow=block;endFill=0;" edge="1" parent="1" source="xVFssI4elNhM6xEzGph4-17" target="xVFssI4elNhM6xEzGph4-28">
          <mxGeometry relative="1" as="geometry" />
        </mxCell>
        <mxCell id="xVFssI4elNhM6xEzGph4-17" value="&lt;font style=&quot;font-size: 15px;&quot;&gt;수정&lt;/font&gt;" style="ellipse;whiteSpace=wrap;html=1;" vertex="1" parent="1">
          <mxGeometry x="432.5" y="1134.4000244140625" width="50" height="50" as="geometry" />
        </mxCell>
        <mxCell id="xVFssI4elNhM6xEzGph4-18" value="" style="edgeStyle=orthogonalEdgeStyle;rounded=0;orthogonalLoop=1;jettySize=auto;html=1;fontSize=12;startSize=8;endSize=8;endArrow=block;endFill=0;" edge="1" parent="1" source="xVFssI4elNhM6xEzGph4-19" target="xVFssI4elNhM6xEzGph4-28">
          <mxGeometry relative="1" as="geometry" />
        </mxCell>
        <mxCell id="xVFssI4elNhM6xEzGph4-19" value="&lt;font style=&quot;font-size: 15px;&quot;&gt;조회&lt;/font&gt;" style="ellipse;whiteSpace=wrap;html=1;" vertex="1" parent="1">
          <mxGeometry x="432.5" y="1084.4000244140625" width="50" height="50" as="geometry" />
        </mxCell>
        <mxCell id="xVFssI4elNhM6xEzGph4-20" value="&amp;lt;&amp;lt;include&amp;gt;&amp;gt;" style="endArrow=open;endSize=12;dashed=1;html=1;rounded=0;entryX=0.794;entryY=0.05;entryDx=0;entryDy=0;exitX=0;exitY=1;exitDx=0;exitDy=0;entryPerimeter=0;" edge="1" parent="1" source="xVFssI4elNhM6xEzGph4-12" target="xVFssI4elNhM6xEzGph4-5">
          <mxGeometry width="160" relative="1" as="geometry">
            <mxPoint x="724.97" y="817.1600244140627" as="sourcePoint" />
            <mxPoint x="632" y="704.4000244140625" as="targetPoint" />
          </mxGeometry>
        </mxCell>
        <mxCell id="xVFssI4elNhM6xEzGph4-21" value="" style="edgeStyle=orthogonalEdgeStyle;rounded=0;orthogonalLoop=1;jettySize=auto;html=1;fontSize=12;startSize=8;endSize=8;endArrow=block;endFill=0;" edge="1" parent="1" source="xVFssI4elNhM6xEzGph4-22" target="xVFssI4elNhM6xEzGph4-8">
          <mxGeometry relative="1" as="geometry" />
        </mxCell>
        <mxCell id="xVFssI4elNhM6xEzGph4-22" value="&lt;font style=&quot;font-size: 15px;&quot;&gt;삭제&lt;/font&gt;" style="ellipse;whiteSpace=wrap;html=1;" vertex="1" parent="1">
          <mxGeometry x="1182" y="1074.4000244140625" width="43" height="40" as="geometry" />
        </mxCell>
        <mxCell id="xVFssI4elNhM6xEzGph4-23" value="&lt;font style=&quot;font-size: 15px;&quot;&gt;결제&lt;/font&gt;" style="ellipse;whiteSpace=wrap;html=1;" vertex="1" parent="1">
          <mxGeometry x="882" y="594.4000244140625" width="110" height="60" as="geometry" />
        </mxCell>
        <mxCell id="xVFssI4elNhM6xEzGph4-24" value="Use" style="html=1;verticalAlign=bottom;endArrow=block;curved=0;rounded=0;entryX=0.008;entryY=0.404;entryDx=0;entryDy=0;exitX=0.5;exitY=0.5;exitDx=0;exitDy=0;exitPerimeter=0;entryPerimeter=0;" edge="1" parent="1" source="xVFssI4elNhM6xEzGph4-3" target="xVFssI4elNhM6xEzGph4-12">
          <mxGeometry width="80" relative="1" as="geometry">
            <mxPoint x="262" y="934.4000244140625" as="sourcePoint" />
            <mxPoint x="612" y="937.4000244140625" as="targetPoint" />
          </mxGeometry>
        </mxCell>
        <mxCell id="xVFssI4elNhM6xEzGph4-25" value="Use" style="html=1;verticalAlign=bottom;endArrow=block;curved=0;rounded=0;entryX=0.017;entryY=0.649;entryDx=0;entryDy=0;entryPerimeter=0;" edge="1" parent="1" source="xVFssI4elNhM6xEzGph4-2" target="xVFssI4elNhM6xEzGph4-12">
          <mxGeometry x="-0.1402" y="-7" width="80" relative="1" as="geometry">
            <mxPoint x="452" y="1034.4000244140625" as="sourcePoint" />
            <mxPoint x="802" y="1037.4000244140625" as="targetPoint" />
            <mxPoint as="offset" />
          </mxGeometry>
        </mxCell>
        <mxCell id="xVFssI4elNhM6xEzGph4-26" value="&amp;lt;&amp;lt;include&amp;gt;&amp;gt;" style="endArrow=open;endSize=12;dashed=1;html=1;rounded=0;exitX=1;exitY=0.5;exitDx=0;exitDy=0;entryX=0;entryY=0.5;entryDx=0;entryDy=0;" edge="1" parent="1" source="xVFssI4elNhM6xEzGph4-12" target="xVFssI4elNhM6xEzGph4-23">
          <mxGeometry x="0.1411" width="160" relative="1" as="geometry">
            <mxPoint x="602" y="694.4000244140625" as="sourcePoint" />
            <mxPoint x="762" y="694.4000244140625" as="targetPoint" />
            <mxPoint as="offset" />
          </mxGeometry>
        </mxCell>
        <mxCell id="xVFssI4elNhM6xEzGph4-27" value="&amp;lt;&amp;lt;include&amp;gt;&amp;gt;" style="endArrow=open;endSize=12;dashed=1;html=1;rounded=0;entryX=1;entryY=1;entryDx=0;entryDy=0;exitX=0.303;exitY=0.056;exitDx=0;exitDy=0;exitPerimeter=0;" edge="1" parent="1" source="xVFssI4elNhM6xEzGph4-8" target="xVFssI4elNhM6xEzGph4-9">
          <mxGeometry width="160" relative="1" as="geometry">
            <mxPoint x="1264" y="689.4000244140625" as="sourcePoint" />
            <mxPoint x="951" y="414.4000244140625" as="targetPoint" />
          </mxGeometry>
        </mxCell>
        <mxCell id="xVFssI4elNhM6xEzGph4-28" value="&lt;font style=&quot;font-size: 15px;&quot;&gt;회원 정보 관리&lt;/font&gt;" style="ellipse;whiteSpace=wrap;html=1;" vertex="1" parent="1">
          <mxGeometry x="540.5" y="1079.4000244140625" width="110" height="60" as="geometry" />
        </mxCell>
        <mxCell id="xVFssI4elNhM6xEzGph4-29" value="Use" style="html=1;verticalAlign=bottom;endArrow=block;curved=0;rounded=0;entryX=1;entryY=1;entryDx=0;entryDy=0;exitX=0.5;exitY=0;exitDx=0;exitDy=0;exitPerimeter=0;" edge="1" parent="1" source="xVFssI4elNhM6xEzGph4-13" target="xVFssI4elNhM6xEzGph4-28">
          <mxGeometry width="80" relative="1" as="geometry">
            <mxPoint x="913.9999999999998" y="1340.5703294669813" as="sourcePoint" />
            <mxPoint x="757" y="695.4000244140625" as="targetPoint" />
          </mxGeometry>
        </mxCell>
        <mxCell id="xVFssI4elNhM6xEzGph4-30" value="Use" style="html=1;verticalAlign=bottom;endArrow=block;curved=0;rounded=0;entryX=0.431;entryY=1.056;entryDx=0;entryDy=0;exitX=0.5;exitY=0;exitDx=0;exitDy=0;exitPerimeter=0;entryPerimeter=0;" edge="1" parent="1" source="xVFssI4elNhM6xEzGph4-13" target="xVFssI4elNhM6xEzGph4-8">
          <mxGeometry x="-0.1979" y="2" width="80" relative="1" as="geometry">
            <mxPoint x="928.9999999999998" y="1324.4000244140625" as="sourcePoint" />
            <mxPoint x="898" y="594.4000244140625" as="targetPoint" />
            <mxPoint as="offset" />
          </mxGeometry>
        </mxCell>
        <mxCell id="xVFssI4elNhM6xEzGph4-31" value="Use" style="html=1;verticalAlign=bottom;endArrow=block;curved=0;rounded=0;exitX=0.772;exitY=0.008;exitDx=0;exitDy=0;exitPerimeter=0;entryX=0.228;entryY=0.938;entryDx=0;entryDy=0;entryPerimeter=0;" edge="1" parent="1" source="xVFssI4elNhM6xEzGph4-4" target="xVFssI4elNhM6xEzGph4-8">
          <mxGeometry width="80" relative="1" as="geometry">
            <mxPoint x="644" y="1324.4000244140625" as="sourcePoint" />
            <mxPoint x="644" y="1124.4000244140625" as="targetPoint" />
          </mxGeometry>
        </mxCell>
        <mxCell id="xVFssI4elNhM6xEzGph4-32" value="Use" style="html=1;verticalAlign=bottom;endArrow=block;curved=0;rounded=0;entryX=0.5;entryY=1;entryDx=0;entryDy=0;exitX=0.5;exitY=0;exitDx=0;exitDy=0;exitPerimeter=0;" edge="1" parent="1" source="xVFssI4elNhM6xEzGph4-4" target="xVFssI4elNhM6xEzGph4-28">
          <mxGeometry x="-0.176" y="-5" width="80" relative="1" as="geometry">
            <mxPoint x="644" y="1324.4000244140625" as="sourcePoint" />
            <mxPoint x="632" y="1164.4000244140625" as="targetPoint" />
            <mxPoint as="offset" />
          </mxGeometry>
        </mxCell>
        <mxCell id="xVFssI4elNhM6xEzGph4-33" value="&amp;lt;&amp;lt;include&amp;gt;&amp;gt;" style="endArrow=open;endSize=12;dashed=1;html=1;rounded=0;entryX=0;entryY=1;entryDx=0;entryDy=0;exitX=0.926;exitY=0.272;exitDx=0;exitDy=0;exitPerimeter=0;" edge="1" parent="1" source="xVFssI4elNhM6xEzGph4-28" target="xVFssI4elNhM6xEzGph4-9">
          <mxGeometry width="160" relative="1" as="geometry">
            <mxPoint x="401" y="1067.4000244140625" as="sourcePoint" />
            <mxPoint x="476" y="894.4000244140625" as="targetPoint" />
          </mxGeometry>
        </mxCell>
        <mxCell id="xVFssI4elNhM6xEzGph4-34" value="&lt;font style=&quot;font-size: 15px;&quot;&gt;회원 가입&lt;/font&gt;" style="ellipse;whiteSpace=wrap;html=1;" vertex="1" parent="1">
          <mxGeometry x="512" y="434.4000244140625" width="110" height="60" as="geometry" />
        </mxCell>
        <mxCell id="xVFssI4elNhM6xEzGph4-35" value="Use" style="html=1;verticalAlign=bottom;endArrow=block;curved=0;rounded=0;entryX=0;entryY=0.5;entryDx=0;entryDy=0;exitX=0.5;exitY=0.5;exitDx=0;exitDy=0;exitPerimeter=0;" edge="1" parent="1" source="xVFssI4elNhM6xEzGph4-3" target="xVFssI4elNhM6xEzGph4-34">
          <mxGeometry width="80" relative="1" as="geometry">
            <mxPoint x="312" y="474.4000244140625" as="sourcePoint" />
            <mxPoint x="596" y="476.4000244140625" as="targetPoint" />
          </mxGeometry>
        </mxCell>
        <mxCell id="xVFssI4elNhM6xEzGph4-36" value="Use" style="html=1;verticalAlign=bottom;endArrow=block;curved=0;rounded=0;entryX=0.361;entryY=0.953;entryDx=0;entryDy=0;exitX=0.5;exitY=0;exitDx=0;exitDy=0;exitPerimeter=0;entryPerimeter=0;" edge="1" parent="1" source="xVFssI4elNhM6xEzGph4-4" target="xVFssI4elNhM6xEzGph4-9">
          <mxGeometry x="0.1608" width="80" relative="1" as="geometry">
            <mxPoint x="644" y="1324.4000244140625" as="sourcePoint" />
            <mxPoint x="644" y="914.4000244140625" as="targetPoint" />
            <mxPoint as="offset" />
          </mxGeometry>
        </mxCell>
        <mxCell id="xVFssI4elNhM6xEzGph4-37" value="Use" style="html=1;verticalAlign=bottom;endArrow=block;curved=0;rounded=0;entryX=0.618;entryY=1.071;entryDx=0;entryDy=0;exitX=0.5;exitY=0;exitDx=0;exitDy=0;exitPerimeter=0;entryPerimeter=0;" edge="1" parent="1" source="xVFssI4elNhM6xEzGph4-13" target="xVFssI4elNhM6xEzGph4-9">
          <mxGeometry x="0.163" y="1" width="80" relative="1" as="geometry">
            <mxPoint x="928.9999999999998" y="1324.4000244140625" as="sourcePoint" />
            <mxPoint x="994" y="824.4000244140625" as="targetPoint" />
            <mxPoint y="-1" as="offset" />
          </mxGeometry>
        </mxCell>
        <mxCell id="xVFssI4elNhM6xEzGph4-38" value="Use" style="html=1;verticalAlign=bottom;endArrow=block;curved=0;rounded=0;entryX=0.425;entryY=0.009;entryDx=0;entryDy=0;entryPerimeter=0;" edge="1" parent="1" source="xVFssI4elNhM6xEzGph4-2" target="xVFssI4elNhM6xEzGph4-28">
          <mxGeometry width="80" relative="1" as="geometry">
            <mxPoint x="652" y="866.4000244140625" as="sourcePoint" />
            <mxPoint x="852" y="764.4000244140625" as="targetPoint" />
          </mxGeometry>
        </mxCell>
        <mxCell id="xVFssI4elNhM6xEzGph4-39" value="" style="edgeStyle=orthogonalEdgeStyle;rounded=0;orthogonalLoop=1;jettySize=auto;html=1;fontSize=12;startSize=8;endSize=8;endArrow=block;endFill=0;" edge="1" parent="1" source="xVFssI4elNhM6xEzGph4-40" target="xVFssI4elNhM6xEzGph4-5">
          <mxGeometry relative="1" as="geometry" />
        </mxCell>
        <mxCell id="xVFssI4elNhM6xEzGph4-40" value="&lt;span style=&quot;font-size: 15px;&quot;&gt;날짜&lt;/span&gt;" style="ellipse;whiteSpace=wrap;html=1;" vertex="1" parent="1">
          <mxGeometry x="554" y="854.4000244140625" width="50" height="50" as="geometry" />
        </mxCell>
        <mxCell id="xVFssI4elNhM6xEzGph4-41" value="" style="edgeStyle=orthogonalEdgeStyle;rounded=0;orthogonalLoop=1;jettySize=auto;html=1;fontSize=12;startSize=8;endSize=8;endArrow=block;endFill=0;" edge="1" parent="1" source="xVFssI4elNhM6xEzGph4-42" target="xVFssI4elNhM6xEzGph4-5">
          <mxGeometry relative="1" as="geometry" />
        </mxCell>
        <mxCell id="xVFssI4elNhM6xEzGph4-42" value="&lt;span style=&quot;font-size: 15px;&quot;&gt;금액&lt;/span&gt;" style="ellipse;whiteSpace=wrap;html=1;" vertex="1" parent="1">
          <mxGeometry x="554" y="804.4000244140625" width="50" height="50" as="geometry" />
        </mxCell>
        <mxCell id="xVFssI4elNhM6xEzGph4-43" value="" style="edgeStyle=orthogonalEdgeStyle;rounded=0;orthogonalLoop=1;jettySize=auto;html=1;fontSize=12;startSize=8;endSize=8;endArrow=block;endFill=0;" edge="1" parent="1" source="xVFssI4elNhM6xEzGph4-44" target="xVFssI4elNhM6xEzGph4-5">
          <mxGeometry relative="1" as="geometry" />
        </mxCell>
        <mxCell id="xVFssI4elNhM6xEzGph4-44" value="&lt;span style=&quot;font-size: 15px;&quot;&gt;좌석&lt;/span&gt;" style="ellipse;whiteSpace=wrap;html=1;" vertex="1" parent="1">
          <mxGeometry x="554" y="754.4000244140625" width="50" height="50" as="geometry" />
        </mxCell>
        <mxCell id="xVFssI4elNhM6xEzGph4-45" value="" style="edgeStyle=orthogonalEdgeStyle;rounded=0;orthogonalLoop=1;jettySize=auto;html=1;fontSize=12;startSize=8;endSize=8;entryX=1;entryY=0.5;entryDx=0;entryDy=0;endArrow=block;endFill=0;" edge="1" parent="1" source="xVFssI4elNhM6xEzGph4-46" target="xVFssI4elNhM6xEzGph4-8">
          <mxGeometry relative="1" as="geometry" />
        </mxCell>
        <mxCell id="xVFssI4elNhM6xEzGph4-46" value="&lt;span style=&quot;font-size: 15px;&quot;&gt;공지&lt;/span&gt;" style="ellipse;whiteSpace=wrap;html=1;" vertex="1" parent="1">
          <mxGeometry x="1182" y="1114.4000244140625" width="43" height="40" as="geometry" />
        </mxCell>
        <mxCell id="xVFssI4elNhM6xEzGph4-47" value="" style="edgeStyle=orthogonalEdgeStyle;rounded=0;orthogonalLoop=1;jettySize=auto;html=1;fontSize=12;startSize=8;endSize=8;entryX=1;entryY=0.5;entryDx=0;entryDy=0;endArrow=block;endFill=0;" edge="1" parent="1" source="xVFssI4elNhM6xEzGph4-48" target="xVFssI4elNhM6xEzGph4-8">
          <mxGeometry relative="1" as="geometry" />
        </mxCell>
        <mxCell id="xVFssI4elNhM6xEzGph4-48" value="&lt;span style=&quot;font-size: 15px;&quot;&gt;등록&lt;/span&gt;" style="ellipse;whiteSpace=wrap;html=1;" vertex="1" parent="1">
          <mxGeometry x="1182" y="954.4000244140625" width="43" height="40" as="geometry" />
        </mxCell>
        <mxCell id="xVFssI4elNhM6xEzGph4-49" value="" style="edgeStyle=orthogonalEdgeStyle;rounded=0;orthogonalLoop=1;jettySize=auto;html=1;fontSize=12;startSize=8;endSize=8;endArrow=block;endFill=0;" edge="1" parent="1" source="xVFssI4elNhM6xEzGph4-50" target="xVFssI4elNhM6xEzGph4-28">
          <mxGeometry relative="1" as="geometry" />
        </mxCell>
        <mxCell id="xVFssI4elNhM6xEzGph4-50" value="&lt;font style=&quot;font-size: 15px;&quot;&gt;삭제&lt;/font&gt;" style="ellipse;whiteSpace=wrap;html=1;" vertex="1" parent="1">
          <mxGeometry x="432.5" y="1034.4000244140625" width="50" height="50" as="geometry" />
        </mxCell>
        <mxCell id="xVFssI4elNhM6xEzGph4-51" value="&lt;span style=&quot;font-size: 15px;&quot;&gt;예매&lt;/span&gt;&lt;div&gt;&lt;span style=&quot;font-size: 15px;&quot;&gt;취소&lt;/span&gt;&lt;/div&gt;" style="ellipse;whiteSpace=wrap;html=1;" vertex="1" parent="1">
          <mxGeometry x="663.5" y="724.4000244140625" width="50" height="50" as="geometry" />
        </mxCell>
        <mxCell id="xVFssI4elNhM6xEzGph4-52" value="&lt;span style=&quot;font-size: 15px;&quot;&gt;내역&lt;br&gt;조회&lt;/span&gt;" style="ellipse;whiteSpace=wrap;html=1;" vertex="1" parent="1">
          <mxGeometry x="612" y="724.4000244140625" width="50" height="50" as="geometry" />
        </mxCell>
        <mxCell id="xVFssI4elNhM6xEzGph4-53" value="&amp;lt;&amp;lt;extend&amp;gt;&amp;gt;" style="endArrow=open;endSize=12;dashed=1;html=1;rounded=0;exitX=0.307;exitY=0.077;exitDx=0;exitDy=0;exitPerimeter=0;entryX=0.602;entryY=0.967;entryDx=0;entryDy=0;entryPerimeter=0;" edge="1" parent="1" source="xVFssI4elNhM6xEzGph4-52" target="xVFssI4elNhM6xEzGph4-12">
          <mxGeometry x="0.1411" width="160" relative="1" as="geometry">
            <mxPoint x="573.9499999999999" y="587.3000244140626" as="sourcePoint" />
            <mxPoint x="571" y="654.4000244140625" as="targetPoint" />
            <mxPoint as="offset" />
          </mxGeometry>
        </mxCell>
        <mxCell id="xVFssI4elNhM6xEzGph4-54" value="&amp;lt;&amp;lt;extend&amp;gt;&amp;gt;" style="endArrow=open;endSize=12;dashed=1;html=1;rounded=0;entryX=1;entryY=1;entryDx=0;entryDy=0;exitX=0;exitY=0;exitDx=0;exitDy=0;" edge="1" parent="1" source="xVFssI4elNhM6xEzGph4-51" target="xVFssI4elNhM6xEzGph4-12">
          <mxGeometry x="-0.571" y="-1" width="160" relative="1" as="geometry">
            <mxPoint x="684.0522882181926" y="680.9158584335896" as="sourcePoint" />
            <mxPoint x="699" y="634.4000244140623" as="targetPoint" />
            <mxPoint as="offset" />
          </mxGeometry>
        </mxCell>
        <mxCell id="xVFssI4elNhM6xEzGph4-55" value="&lt;font style=&quot;font-size: 15px;&quot;&gt;키워드&lt;/font&gt;" style="ellipse;whiteSpace=wrap;html=1;" vertex="1" parent="1">
          <mxGeometry x="293.5" y="1074.4" width="42" height="44.4" as="geometry" />
        </mxCell>
        <mxCell id="xVFssI4elNhM6xEzGph4-56" value="&lt;font style=&quot;font-size: 15px;&quot;&gt;전체&lt;/font&gt;" style="ellipse;whiteSpace=wrap;html=1;" vertex="1" parent="1">
          <mxGeometry x="293.5" y="1118.8000000000002" width="42" height="45.6" as="geometry" />
        </mxCell>
        <mxCell id="xVFssI4elNhM6xEzGph4-57" value="&amp;lt;&amp;lt;Extend&amp;gt;&amp;gt;" style="endArrow=open;endSize=12;dashed=1;html=1;rounded=0;fontSize=12;curved=1;exitX=1;exitY=0.5;exitDx=0;exitDy=0;entryX=0.085;entryY=0.398;entryDx=0;entryDy=0;entryPerimeter=0;" edge="1" parent="1" source="xVFssI4elNhM6xEzGph4-55" target="xVFssI4elNhM6xEzGph4-19">
          <mxGeometry width="160" relative="1" as="geometry">
            <mxPoint x="348" y="1004.4000244140625" as="sourcePoint" />
            <mxPoint x="508" y="1004.4000244140625" as="targetPoint" />
          </mxGeometry>
        </mxCell>
        <mxCell id="xVFssI4elNhM6xEzGph4-58" value="&amp;lt;&amp;lt;Extend&amp;gt;&amp;gt;" style="endArrow=open;endSize=12;dashed=1;html=1;rounded=0;fontSize=12;curved=1;exitX=1.071;exitY=0.631;exitDx=0;exitDy=0;exitPerimeter=0;entryX=0.057;entryY=0.77;entryDx=0;entryDy=0;entryPerimeter=0;" edge="1" parent="1" source="xVFssI4elNhM6xEzGph4-56" target="xVFssI4elNhM6xEzGph4-19">
          <mxGeometry width="160" relative="1" as="geometry">
            <mxPoint x="282" y="1184.4000244140625" as="sourcePoint" />
            <mxPoint x="442" y="1184.4000244140625" as="targetPoint" />
          </mxGeometry>
        </mxCell>
        <mxCell id="xVFssI4elNhM6xEzGph4-59" value="&lt;font style=&quot;font-size: 15px;&quot;&gt;전체&lt;/font&gt;" style="ellipse;whiteSpace=wrap;html=1;" vertex="1" parent="1">
          <mxGeometry x="1330" y="979.4000244140625" width="40" height="40" as="geometry" />
        </mxCell>
        <mxCell id="xVFssI4elNhM6xEzGph4-60" value="&lt;span style=&quot;font-size: 15px;&quot;&gt;키워드&lt;/span&gt;" style="ellipse;whiteSpace=wrap;html=1;" vertex="1" parent="1">
          <mxGeometry x="1330" y="1019.4000244140625" width="40" height="40" as="geometry" />
        </mxCell>
        <mxCell id="xVFssI4elNhM6xEzGph4-61" value="&amp;lt;&amp;lt;Extend&amp;gt;&amp;gt;" style="endArrow=open;endSize=12;dashed=1;html=1;rounded=0;fontSize=12;curved=1;exitX=0;exitY=0.5;exitDx=0;exitDy=0;entryX=0.965;entryY=0.679;entryDx=0;entryDy=0;entryPerimeter=0;" edge="1" parent="1" source="xVFssI4elNhM6xEzGph4-60" target="xVFssI4elNhM6xEzGph4-15">
          <mxGeometry width="160" relative="1" as="geometry">
            <mxPoint x="1104" y="904.4000244140625" as="sourcePoint" />
            <mxPoint x="1207" y="919.4000244140625" as="targetPoint" />
          </mxGeometry>
        </mxCell>
        <mxCell id="xVFssI4elNhM6xEzGph4-62" value="&amp;lt;&amp;lt;Extend&amp;gt;&amp;gt;" style="endArrow=open;endSize=12;dashed=1;html=1;rounded=0;fontSize=12;curved=1;exitX=0;exitY=0.5;exitDx=0;exitDy=0;entryX=0.926;entryY=0.325;entryDx=0;entryDy=0;entryPerimeter=0;" edge="1" parent="1" source="xVFssI4elNhM6xEzGph4-59" target="xVFssI4elNhM6xEzGph4-15">
          <mxGeometry width="160" relative="1" as="geometry">
            <mxPoint x="1094" y="964.4000244140625" as="sourcePoint" />
            <mxPoint x="1197" y="979.4000244140625" as="targetPoint" />
          </mxGeometry>
        </mxCell>
        <mxCell id="xVFssI4elNhM6xEzGph4-63" value="&lt;font style=&quot;font-size: 15px;&quot;&gt;비회원&lt;br&gt;환불&lt;/font&gt;" style="ellipse;whiteSpace=wrap;html=1;" vertex="1" parent="1">
          <mxGeometry x="713.5" y="494.4000244140625" width="63" height="60" as="geometry" />
        </mxCell>
        <mxCell id="xVFssI4elNhM6xEzGph4-64" value="&amp;lt;&amp;lt;include&amp;gt;&amp;gt;" style="endArrow=open;endSize=12;dashed=1;html=1;rounded=0;entryX=0.73;entryY=0;entryDx=0;entryDy=0;exitX=0.5;exitY=1;exitDx=0;exitDy=0;entryPerimeter=0;" edge="1" parent="1" source="xVFssI4elNhM6xEzGph4-63" target="xVFssI4elNhM6xEzGph4-51">
          <mxGeometry x="0.1411" width="160" relative="1" as="geometry">
            <mxPoint x="612" y="814.4000244140625" as="sourcePoint" />
            <mxPoint x="975" y="754.4000244140625" as="targetPoint" />
            <mxPoint as="offset" />
          </mxGeometry>
        </mxCell>
        <mxCell id="xVFssI4elNhM6xEzGph4-65" value="&lt;span style=&quot;font-size: 15px;&quot;&gt;회원&lt;/span&gt;&lt;div&gt;&lt;span style=&quot;font-size: 15px;&quot;&gt;환불&lt;/span&gt;&lt;/div&gt;" style="ellipse;whiteSpace=wrap;html=1;" vertex="1" parent="1">
          <mxGeometry x="650.5" y="929.4000244140625" width="63" height="60" as="geometry" />
        </mxCell>
        <mxCell id="xVFssI4elNhM6xEzGph4-66" value="&amp;lt;&amp;lt;include&amp;gt;&amp;gt;" style="endArrow=open;endSize=12;dashed=1;html=1;rounded=0;exitX=0.976;exitY=0.35;exitDx=0;exitDy=0;entryX=0;entryY=0.5;entryDx=0;entryDy=0;exitPerimeter=0;" edge="1" parent="1" source="xVFssI4elNhM6xEzGph4-65" target="xVFssI4elNhM6xEzGph4-9">
          <mxGeometry x="0.1411" width="160" relative="1" as="geometry">
            <mxPoint x="792" y="874.4000244140625" as="sourcePoint" />
            <mxPoint x="815" y="804.4000244140625" as="targetPoint" />
            <mxPoint as="offset" />
          </mxGeometry>
        </mxCell>
        <mxCell id="xVFssI4elNhM6xEzGph4-67" value="Use" style="html=1;verticalAlign=bottom;endArrow=block;curved=0;rounded=0;entryX=0.697;entryY=0.981;entryDx=0;entryDy=0;entryPerimeter=0;exitX=0.5;exitY=0;exitDx=0;exitDy=0;exitPerimeter=0;" edge="1" parent="1" source="xVFssI4elNhM6xEzGph4-13" target="xVFssI4elNhM6xEzGph4-65">
          <mxGeometry x="0.1608" width="80" relative="1" as="geometry">
            <mxPoint x="922" y="1314.4000244140625" as="sourcePoint" />
            <mxPoint x="922" y="1144.4000244140625" as="targetPoint" />
            <mxPoint as="offset" />
          </mxGeometry>
        </mxCell>
        <mxCell id="xVFssI4elNhM6xEzGph4-68" value="Use" style="html=1;verticalAlign=bottom;endArrow=block;curved=0;rounded=0;entryX=0.217;entryY=0.064;entryDx=0;entryDy=0;entryPerimeter=0;" edge="1" parent="1" source="xVFssI4elNhM6xEzGph4-2" target="xVFssI4elNhM6xEzGph4-65">
          <mxGeometry x="0.1608" width="80" relative="1" as="geometry">
            <mxPoint x="383.66" y="1340.9000244140625" as="sourcePoint" />
            <mxPoint x="584.3395016987542" y="897.9000244140625" as="targetPoint" />
            <mxPoint as="offset" />
          </mxGeometry>
        </mxCell>
        <mxCell id="xVFssI4elNhM6xEzGph4-69" value="Use" style="html=1;verticalAlign=bottom;endArrow=block;curved=0;rounded=0;entryX=0.5;entryY=1;entryDx=0;entryDy=0;" edge="1" parent="1" target="xVFssI4elNhM6xEzGph4-65">
          <mxGeometry x="0.1608" width="80" relative="1" as="geometry">
            <mxPoint x="642" y="1314.4000244140625" as="sourcePoint" />
            <mxPoint x="681" y="954.4000244140625" as="targetPoint" />
            <mxPoint as="offset" />
          </mxGeometry>
        </mxCell>
        <mxCell id="xVFssI4elNhM6xEzGph4-70" value="Use" style="html=1;verticalAlign=bottom;endArrow=block;curved=0;rounded=0;entryX=0;entryY=0;entryDx=0;entryDy=0;exitX=0.5;exitY=0.5;exitDx=0;exitDy=0;exitPerimeter=0;" edge="1" parent="1" source="xVFssI4elNhM6xEzGph4-3" target="xVFssI4elNhM6xEzGph4-63">
          <mxGeometry width="80" relative="1" as="geometry">
            <mxPoint x="332" y="564.4000244140625" as="sourcePoint" />
            <mxPoint x="617" y="514.4000244140625" as="targetPoint" />
          </mxGeometry>
        </mxCell>
        <mxCell id="xVFssI4elNhM6xEzGph4-71" value="" style="edgeStyle=orthogonalEdgeStyle;rounded=0;orthogonalLoop=1;jettySize=auto;html=1;fontSize=12;startSize=8;endSize=8;endArrow=block;endFill=0;" edge="1" parent="1" source="xVFssI4elNhM6xEzGph4-72" target="xVFssI4elNhM6xEzGph4-65">
          <mxGeometry relative="1" as="geometry" />
        </mxCell>
        <mxCell id="xVFssI4elNhM6xEzGph4-72" value="&lt;font style=&quot;font-size: 15px;&quot;&gt;처리&lt;/font&gt;" style="ellipse;whiteSpace=wrap;html=1;" vertex="1" parent="1">
          <mxGeometry x="569" y="979.4000244140625" width="40" height="40" as="geometry" />
        </mxCell>
        <mxCell id="xVFssI4elNhM6xEzGph4-73" value="" style="edgeStyle=orthogonalEdgeStyle;rounded=0;orthogonalLoop=1;jettySize=auto;html=1;fontSize=12;startSize=8;endSize=8;endArrow=block;endFill=0;" edge="1" parent="1" source="xVFssI4elNhM6xEzGph4-74" target="xVFssI4elNhM6xEzGph4-65">
          <mxGeometry relative="1" as="geometry" />
        </mxCell>
        <mxCell id="xVFssI4elNhM6xEzGph4-74" value="&lt;font style=&quot;font-size: 15px;&quot;&gt;신청&lt;/font&gt;" style="ellipse;whiteSpace=wrap;html=1;" vertex="1" parent="1">
          <mxGeometry x="569" y="939.4000244140625" width="40" height="40" as="geometry" />
        </mxCell>
        <mxCell id="xVFssI4elNhM6xEzGph4-75" value="&amp;lt;&amp;lt;include&amp;gt;&amp;gt;" style="endArrow=open;endSize=12;dashed=1;html=1;rounded=0;entryX=0.5;entryY=1;entryDx=0;entryDy=0;exitX=0.5;exitY=0;exitDx=0;exitDy=0;" edge="1" parent="1" source="xVFssI4elNhM6xEzGph4-65" target="xVFssI4elNhM6xEzGph4-51">
          <mxGeometry x="0.1411" width="160" relative="1" as="geometry">
            <mxPoint x="847" y="784.4000244140625" as="sourcePoint" />
            <mxPoint x="842" y="954.4000244140625" as="targetPoint" />
            <mxPoint as="offset" />
          </mxGeometry>
        </mxCell>
        <mxCell id="xVFssI4elNhM6xEzGph4-76" value="&lt;font style=&quot;font-size: 15px;&quot;&gt;비회원&lt;/font&gt;&lt;div&gt;&lt;span style=&quot;font-size: 15px;&quot;&gt;결제 정보&lt;/span&gt;&lt;/div&gt;" style="ellipse;whiteSpace=wrap;html=1;" vertex="1" parent="1">
          <mxGeometry x="882" y="464.4000244140625" width="110" height="60" as="geometry" />
        </mxCell>
        <mxCell id="xVFssI4elNhM6xEzGph4-77" value="&amp;lt;&amp;lt;include&amp;gt;&amp;gt;" style="endArrow=open;endSize=12;dashed=1;html=1;rounded=0;exitX=1;exitY=0.5;exitDx=0;exitDy=0;entryX=0;entryY=0.5;entryDx=0;entryDy=0;" edge="1" parent="1" source="xVFssI4elNhM6xEzGph4-63" target="xVFssI4elNhM6xEzGph4-76">
          <mxGeometry x="0.1411" width="160" relative="1" as="geometry">
            <mxPoint x="802" y="544.4000244140625" as="sourcePoint" />
            <mxPoint x="1003" y="544.4000244140625" as="targetPoint" />
            <mxPoint as="offset" />
          </mxGeometry>
        </mxCell>
        <mxCell id="xVFssI4elNhM6xEzGph4-78" value="&amp;lt;&amp;lt;include&amp;gt;&amp;gt;" style="endArrow=open;endSize=12;dashed=1;html=1;rounded=0;entryX=0.5;entryY=0;entryDx=0;entryDy=0;exitX=0.5;exitY=1;exitDx=0;exitDy=0;" edge="1" parent="1" source="xVFssI4elNhM6xEzGph4-76" target="xVFssI4elNhM6xEzGph4-23">
          <mxGeometry x="0.1411" width="160" relative="1" as="geometry">
            <mxPoint x="1127" y="584.4000244140625" as="sourcePoint" />
            <mxPoint x="1122" y="754.4000244140625" as="targetPoint" />
            <mxPoint as="offset" />
          </mxGeometry>
        </mxCell>
        <mxCell id="xVFssI4elNhM6xEzGph4-79" value="" style="edgeStyle=orthogonalEdgeStyle;rounded=0;orthogonalLoop=1;jettySize=auto;html=1;fontSize=12;startSize=8;endSize=8;endArrow=block;endFill=0;" edge="1" parent="1" source="xVFssI4elNhM6xEzGph4-80" target="xVFssI4elNhM6xEzGph4-63">
          <mxGeometry relative="1" as="geometry">
            <Array as="points">
              <mxPoint x="692" y="564.4000244140625" />
              <mxPoint x="692" y="524.4000244140625" />
            </Array>
          </mxGeometry>
        </mxCell>
        <mxCell id="xVFssI4elNhM6xEzGph4-80" value="&lt;font style=&quot;font-size: 15px;&quot;&gt;신청&lt;/font&gt;" style="ellipse;whiteSpace=wrap;html=1;" vertex="1" parent="1">
          <mxGeometry x="642" y="544.4000244140625" width="40" height="40" as="geometry" />
        </mxCell>
        <mxCell id="xVFssI4elNhM6xEzGph4-81" value="" style="edgeStyle=orthogonalEdgeStyle;rounded=0;orthogonalLoop=1;jettySize=auto;html=1;fontSize=12;startSize=8;endSize=8;endArrow=block;endFill=0;" edge="1" parent="1" source="xVFssI4elNhM6xEzGph4-82" target="xVFssI4elNhM6xEzGph4-63">
          <mxGeometry relative="1" as="geometry" />
        </mxCell>
        <mxCell id="xVFssI4elNhM6xEzGph4-82" value="&lt;font style=&quot;font-size: 15px;&quot;&gt;승인&lt;/font&gt;" style="ellipse;whiteSpace=wrap;html=1;" vertex="1" parent="1">
          <mxGeometry x="642" y="504.4000244140625" width="40" height="40" as="geometry" />
        </mxCell>
        <mxCell id="xVFssI4elNhM6xEzGph4-83" value="Use" style="html=1;verticalAlign=bottom;endArrow=block;curved=0;rounded=0;fontSize=12;startSize=8;endSize=8;exitX=1;exitY=0.3333333333333333;exitDx=0;exitDy=0;exitPerimeter=0;entryX=0.667;entryY=0.025;entryDx=0;entryDy=0;entryPerimeter=0;" edge="1" parent="1" source="xVFssI4elNhM6xEzGph4-13" target="xVFssI4elNhM6xEzGph4-63">
          <mxGeometry x="-0.1352" width="80" relative="1" as="geometry">
            <mxPoint x="842" y="1144.4000244140625" as="sourcePoint" />
            <mxPoint x="312" y="354.4000244140625" as="targetPoint" />
            <Array as="points">
              <mxPoint x="1432" y="1344.4000244140625" />
              <mxPoint x="1432" y="374.4000244140625" />
              <mxPoint x="756" y="374.4000244140625" />
            </Array>
            <mxPoint as="offset" />
          </mxGeometry>
        </mxCell>
        <mxCell id="xVFssI4elNhM6xEzGph4-84" value="" style="edgeStyle=orthogonalEdgeStyle;rounded=0;orthogonalLoop=1;jettySize=auto;html=1;fontSize=12;startSize=8;endSize=8;endArrow=block;endFill=0;" edge="1" parent="1" source="xVFssI4elNhM6xEzGph4-85" target="xVFssI4elNhM6xEzGph4-23">
          <mxGeometry relative="1" as="geometry">
            <Array as="points">
              <mxPoint x="964" y="684.4000244140625" />
              <mxPoint x="937" y="684.4000244140625" />
            </Array>
          </mxGeometry>
        </mxCell>
        <mxCell id="xVFssI4elNhM6xEzGph4-85" value="&lt;span style=&quot;font-size: 15px;&quot;&gt;결제&lt;/span&gt;&lt;div&gt;&lt;span style=&quot;font-size: 15px;&quot;&gt;내역&lt;/span&gt;&lt;/div&gt;" style="ellipse;whiteSpace=wrap;html=1;" vertex="1" parent="1">
          <mxGeometry x="939" y="694.4000244140625" width="50" height="50" as="geometry" />
        </mxCell>
        <mxCell id="xVFssI4elNhM6xEzGph4-86" value="" style="edgeStyle=orthogonalEdgeStyle;rounded=0;orthogonalLoop=1;jettySize=auto;html=1;fontSize=12;startSize=8;endSize=8;endArrow=block;endFill=0;" edge="1" parent="1" source="xVFssI4elNhM6xEzGph4-87" target="xVFssI4elNhM6xEzGph4-23">
          <mxGeometry relative="1" as="geometry">
            <Array as="points">
              <mxPoint x="913" y="684.4000244140625" />
              <mxPoint x="937" y="684.4000244140625" />
            </Array>
          </mxGeometry>
        </mxCell>
        <mxCell id="xVFssI4elNhM6xEzGph4-87" value="&lt;span style=&quot;font-size: 15px;&quot;&gt;결제&lt;/span&gt;&lt;div&gt;&lt;span style=&quot;font-size: 15px;&quot;&gt;수단&lt;/span&gt;&lt;/div&gt;" style="ellipse;whiteSpace=wrap;html=1;" vertex="1" parent="1">
          <mxGeometry x="888" y="694.4000244140625" width="50" height="50" as="geometry" />
        </mxCell>
        <mxCell id="xVFssI4elNhM6xEzGph4-88" value="&lt;font style=&quot;font-size: 15px;&quot;&gt;영수증 발급&lt;/font&gt;" style="ellipse;whiteSpace=wrap;html=1;" vertex="1" parent="1">
          <mxGeometry x="1082" y="689.4000244140625" width="110" height="60" as="geometry" />
        </mxCell>
        <mxCell id="xVFssI4elNhM6xEzGph4-89" value="&amp;lt;&amp;lt;Extend&amp;gt;&amp;gt;" style="endArrow=open;endSize=12;dashed=1;html=1;rounded=0;fontSize=12;curved=1;entryX=1;entryY=0.5;entryDx=0;entryDy=0;exitX=0;exitY=0.5;exitDx=0;exitDy=0;" edge="1" parent="1" source="xVFssI4elNhM6xEzGph4-88" target="xVFssI4elNhM6xEzGph4-85">
          <mxGeometry width="160" relative="1" as="geometry">
            <mxPoint x="712" y="834.4000244140625" as="sourcePoint" />
            <mxPoint x="872" y="834.4000244140625" as="targetPoint" />
          </mxGeometry>
        </mxCell>
        <mxCell id="_IuUIeIjiLAjNqtg1X3l-1" value="" style="edgeStyle=orthogonalEdgeStyle;rounded=0;orthogonalLoop=1;jettySize=auto;html=1;endArrow=block;endFill=0;" edge="1" parent="1" source="xVFssI4elNhM6xEzGph4-90" target="xVFssI4elNhM6xEzGph4-88">
          <mxGeometry relative="1" as="geometry" />
        </mxCell>
        <mxCell id="xVFssI4elNhM6xEzGph4-90" value="&lt;span style=&quot;font-size: 15px;&quot;&gt;출력&lt;/span&gt;" style="ellipse;whiteSpace=wrap;html=1;" vertex="1" parent="1">
          <mxGeometry x="1241" y="669.4000244140625" width="50" height="50" as="geometry" />
        </mxCell>
        <mxCell id="_IuUIeIjiLAjNqtg1X3l-2" value="" style="edgeStyle=orthogonalEdgeStyle;rounded=0;orthogonalLoop=1;jettySize=auto;html=1;endArrow=block;endFill=0;" edge="1" parent="1" source="xVFssI4elNhM6xEzGph4-91" target="xVFssI4elNhM6xEzGph4-88">
          <mxGeometry relative="1" as="geometry" />
        </mxCell>
        <mxCell id="xVFssI4elNhM6xEzGph4-91" value="&lt;span style=&quot;font-size: 15px;&quot;&gt;이메일&lt;/span&gt;&lt;div&gt;&lt;span style=&quot;font-size: 15px;&quot;&gt;발급&lt;/span&gt;&lt;/div&gt;" style="ellipse;whiteSpace=wrap;html=1;" vertex="1" parent="1">
          <mxGeometry x="1241" y="719.4000244140625" width="50" height="50" as="geometry" />
        </mxCell>
      </root>
    </mxGraphModel>
  </diagram>
</mxfile>
